<svg width="1414" height="1226" xmlns="http://www.w3.org/2000/svg" xmlns:xlink="http://www.w3.org/1999/xlink" xml:space="preserve" overflow="hidden"><defs><clipPath id="clip0"><rect x="1294" y="407" width="1414" height="1226"/></clipPath></defs><g clip-path="url(#clip0)" transform="translate(-1294 -407)"><path d="M416.316 0 112.455 0 0 870.018 1.0269 869.783C19.0781 869.783 33.7115 886.402 33.7115 906.903 33.7115 912.028 32.797 916.911 31.143 921.352L26.0089 930 330.848 930 447 31.3787 435.299 28.6959C427.479 24.9391 421.214 17.8236 417.906 8.94175Z" fill="#003DB8" fill-rule="evenodd" transform="matrix(-1 0 0 1 2257 703)"/><path d="M2372.44 407 2708 407 2261.56 1633 1926 1633Z" fill="#00B0F0" fill-rule="evenodd"/><path d="M505 0 167.068 0 0 691.557 9.80926 693.806C21.5379 699.439 29.7673 712.626 29.7673 727.995L29.2331 731 328.404 731Z" fill="#003DB8" fill-rule="evenodd" transform="matrix(-1 0 0 1 1799 902)"/><path d="M1808.94 703 2144 703 1806.06 1633 1471 1633Z" fill="#00B0F0" fill-rule="evenodd"/></g></svg>